<?xml version="1.0" encoding="utf-8"?>

<!DOCTYPE svg PUBLIC "-//W3C//DTD SVG 1.1//EN" "http://www.w3.org/Graphics/SVG/1.1/DTD/svg11.dtd">
<!-- Uploaded to: SVG Repo, www.svgrepo.com, Generator: SVG Repo Mixer Tools -->
<svg height="800px" width="800px" version="1.1" id="_x32_" xmlns="http://www.w3.org/2000/svg" xmlns:xlink="http://www.w3.org/1999/xlink" 
	 viewBox="0 0 512 512"  xml:space="preserve">
<style type="text/css">
	.st0{fill:#000000;}
</style>
<g>
	<path class="st0" d="M322.708,168.399c-11.948,0-21.631,9.684-21.631,21.632c0,8.839,5.3,16.395,12.873,19.756
		c0,6.835,0,3.215,0,6.964c-0.008,16.039-6.477,30.455-16.972,40.974c-10.511,10.504-24.951,16.981-40.982,16.981
		c-16.022,0-30.462-6.477-40.966-16.981c-10.502-10.519-16.972-24.935-16.972-40.974v-6.964c7.574-3.36,12.866-10.916,12.866-19.756
		c0-11.948-9.676-21.632-21.623-21.632c-11.956,0-21.64,9.684-21.64,21.632c0,8.847,5.3,16.395,12.882,19.756v6.964
		c0.008,41.688,33.782,75.454,75.454,75.47c41.688-0.008,75.462-33.782,75.462-75.47c0-3.749,0-0.13,0-6.956
		c7.582-3.36,12.89-10.917,12.89-19.764C344.348,178.083,334.656,168.399,322.708,168.399z"/>
	<path class="st0" d="M488.729,100.86l-42.248-34.822l-1.266-26.152H66.786l-2.313,26.152L23.271,100.86L0,472.114h512
		L488.729,100.86z M35.398,438.868l19.099-304.762h403.007l19.098,304.762H35.398z"/>
</g>
</svg>